<?xml version="1.0" standalone="no"?><!DOCTYPE svg PUBLIC "-//W3C//DTD SVG 1.1//EN" "http://www.w3.org/Graphics/SVG/1.1/DTD/svg11.dtd"><svg t="1583983772805" class="icon" viewBox="0 0 1024 1024" version="1.1" xmlns="http://www.w3.org/2000/svg" p-id="782" xmlns:xlink="http://www.w3.org/1999/xlink" width="200" height="200"><defs><style type="text/css"></style></defs><path d="M928.341333 265.272889H554.097778c14.023111-56.888889 58.766222-102.456889 116.650666-114.460445a37.859556 37.859556 0 1 0-15.36-74.211555c-92.928 19.256889-163.299556 95.744-178.574222 188.672H94.776889C73.841778 265.272889 56.888889 282.254222 56.888889 303.160889v530.432c0 20.935111 16.952889 37.916444 37.888 37.916444h833.564444c20.906667 0 37.888-16.981333 37.888-37.916444V303.160889c0-20.906667-16.981333-37.888-37.888-37.888z m-37.888 530.460444H132.664889V341.048889h757.76v454.684444z" fill="#333333" p-id="783"></path><path d="M435.768889 530.488889h-56.832v-56.832a37.888 37.888 0 0 0-75.776 0v56.832H246.328889a37.888 37.888 0 0 0 0 75.804444h56.832v56.832a37.888 37.888 0 0 0 75.776 0v-56.832h56.832a37.888 37.888 0 0 0 0-75.804444zM568.376889 625.208889a56.832 56.832 0 1 0 113.692444 0 56.832 56.832 0 0 0-113.692444 0zM682.069333 511.544889a56.832 56.832 0 1 0 113.664 0 56.832 56.832 0 0 0-113.664 0z" fill="#26A51C" p-id="784"></path></svg>