<?xml version="1.0" standalone="yes"?>
<svg xmlns="http://www.w3.org/2000/svg" width="1410" height="978">
<path style="fill:#edfcfc; stroke:none;" d="M0 0L0 223C3.39449 213.985 3.17184 202.539 5.21682 193C9.04991 175.12 15.0015 157.546 22.791 141C57.3216 67.6518 138.541 1.48621 223 1C216.531 -1.41754 207.859 0 201 0L155 0L0 0z"/>
<path style="fill:#0883bd; stroke:none;" d="M223 0.432495C121.601 12.8087 34.5361 80.1164 7.89133 181C-5.36647 231.197 0 285.526 0 337L0 600C0 708.855 -13.9906 824.695 72.0104 907.941C104.94 939.815 146.211 962.654 191 972.567C220.154 979.02 249.339 978 279 978L391 978L931 978L1103 978C1137.42 978 1172.97 980.702 1207 974.915C1299.8 959.131 1377.25 888.909 1401.84 798C1415.89 746.074 1410 689.312 1410 636L1410 359C1410 309.24 1415.14 256.23 1407.57 207C1398.83 150.152 1369.91 98.3003 1327 60.1867C1238.65 -18.2861 1117.09 0 1008 0L483 0L311 0C282.237 0 251.542 -3.05121 223 0.432495z"/>
<path style="fill:#edfcfc; stroke:none;" d="M1187 0C1196.02 3.39465 1207.46 3.17188 1217 5.21686C1234.88 9.04993 1252.45 15.0015 1269 22.791C1342.35 57.321 1408.52 138.542 1409 223C1411.42 216.531 1410 207.859 1410 201L1410 155L1410 0L1187 0M1243 199C1242.68 187.862 1237.17 176.815 1232.18 167C1224.45 151.809 1221.68 136.992 1204 128.28C1184.15 118.5 1155.25 126.791 1135 129.799C1103.43 134.488 1072.66 135.162 1041 131.857C1035.77 131.311 1031.93 127.815 1026.94 126.664C997.231 119.813 967.107 109.74 936 114.46C812.458 133.204 691.736 170.406 571.941 203.383C507.439 221.139 442.694 235.804 379 257.196C344.762 268.696 308.762 275.621 276.305 293.197C239.74 312.997 211.495 346.331 178.804 371.541C160.398 385.734 140.128 396.134 119 405.613C98.9624 414.602 77.2743 421.847 62.6578 439.43C55.8238 447.651 58.3746 468.127 59.5676 478C63.0103 506.489 64.4387 534.706 69.3981 563C74.7033 593.266 77.1419 624.061 84.3684 653.941C91.3975 683.004 99.5315 713.464 105.606 743.027C114.432 785.982 123.11 840.02 160.305 868.325C172.425 877.548 188.524 882.363 203.01 886.252C257.952 901.003 318.525 894.083 375 895.01C420.547 895.758 465.04 901.834 511 897.875C562.177 893.466 614.348 883.492 664 870.479C677.729 866.881 692.152 865.9 705.804 862.626C759.636 849.717 813.729 833.039 867 816.745C941.811 793.863 1021.5 775.66 1088.86 733.308C1116.68 715.816 1143.72 695.954 1172.01 678.754C1207.37 657.26 1245.17 638.867 1277.25 612.905C1298.51 595.695 1328.93 577.194 1336.44 549C1342.1 527.767 1337.79 501.854 1333.38 480.973C1328.87 459.574 1325.76 437.038 1319.15 416.059C1312.47 394.864 1303.34 373.577 1297.57 352C1289.95 323.509 1278.58 295.607 1270.46 267.305C1267.91 258.412 1261.29 248.946 1260.09 239.997C1259.03 232.133 1251.03 200.699 1243 199z"/>
<path style="fill:#0883bd; stroke:none;" d="M445 792C463.059 793.718 480.16 802.391 499 802.973C572.009 805.227 644.93 786.937 714.001 769.006C781.883 751.383 849.072 735.997 914.01 709.666C949.765 695.169 983.21 682.656 1016.3 662.367C1030.61 653.594 1049.32 641.521 1055.46 624.941C1062.41 606.175 1048.2 581.094 1044.43 563C1032.23 504.413 1012.01 445.876 996.667 388C989.947 362.646 985.07 336.442 978.333 311C973.211 291.658 964.862 272.704 960.823 253C957.888 238.676 953.862 225.145 949.8 211C948.353 205.96 950.402 200.177 945.784 196.578C930.021 184.294 912.966 190.092 895 192.8C867.173 196.994 837.888 203.895 810 205.885C778.263 208.151 745.927 219.045 715 225.776C660.552 237.627 606.094 249.181 553 265.906C517.052 277.23 481.925 291.097 446 302.486C423.385 309.656 401.999 319.587 380 328.079C357.654 336.705 334.574 340.923 324.89 365.432C320.93 375.454 327.447 384.604 329.017 394C331.715 410.142 338.194 424.425 342.515 440.196C346.561 454.963 348.584 470.197 352.94 485C373.954 556.416 392.581 628.295 412.104 700.059C419.009 725.441 421.374 752.494 431.69 776.973C434.431 783.477 442.598 785.379 445 792M1065 222.436C1039.92 225.698 1017.05 249.46 1020.15 276C1023.3 302.952 1053.51 326.208 1080 322.773C1116.79 318.003 1130.1 284.216 1118.47 251.973C1115.2 242.9 1114.56 236.505 1106.25 229.917C1095.7 221.566 1077.73 220.78 1065 222.436M1179 264.432C1154.44 267.403 1130.59 292.416 1134.23 319C1137.93 345.934 1167.36 367.683 1194 364.793C1231.75 360.698 1242.96 325.919 1232.45 294C1229.34 284.569 1227.9 276.877 1218.99 270.521C1209.45 263.714 1190.34 263.062 1179 264.432z"/>
<path style="fill:#edfcfc; stroke:none;" d="M476 725C489.673 724.964 504.662 717.944 518 714.56C550.404 706.339 582.446 696.709 615 688.702C692.026 669.758 769.371 648.524 846 627.822C893.36 615.026 940.725 598.518 989 589C988.957 567.912 977.704 548.183 973.345 528C960.395 468.032 940.217 409.266 925.48 350C920.217 328.834 914.778 308.595 907.806 288C906.125 283.034 909.63 271.558 904.588 268.482C897.79 264.335 883.009 273.377 876 274.685C860.768 277.526 846.765 283.736 832 287.46C816.91 291.267 801.619 292.876 786.885 298.416C753.6 310.933 716.38 315.609 682.059 325.087C620.16 342.181 559.118 361.012 497 376.163C470.617 382.598 441.058 387.18 416 397.599C409.248 400.407 397.47 398.821 393.154 406.201C390.315 411.055 394.602 422.826 395.89 428C400.787 447.676 409.217 467.177 413.662 487.115C420.109 516.036 429.45 544.637 437.486 573C443.399 593.869 446.457 616.026 452.687 637C461.036 665.105 473.455 695.829 476 725z"/>
<path style="fill:#0883bd; stroke:none;" d="M1081 337.502C1054.55 342.401 1033.11 362.682 1033.12 391C1033.13 417.723 1066.03 447.281 1092.89 442.795C1146.78 433.795 1154.69 351.606 1099 340.345C1092.67 339.066 1087.67 336.267 1081 337.502M1186 378.548C1162.01 383.231 1141.62 411.251 1146.79 436C1152.27 462.221 1182.38 483.542 1208.94 478.716C1242.71 472.581 1253.75 440.998 1245 411C1243.47 405.758 1243.83 399.566 1240.61 395C1229.53 379.244 1204.14 375.007 1186 378.548M303 573L302 571C306.421 569.786 313.154 568.853 316.283 565.227C322.46 558.068 312.531 537.156 310.765 529C309.378 522.595 311.221 512.069 304.899 508.035C288.796 497.761 263.772 516.267 248 519C246.267 506.582 242.108 494.779 238.967 482.695C237.852 478.406 240.667 472.723 237.283 469.129C232.125 463.653 224.486 465.074 218 466.318C204.953 468.82 180.192 470.247 173.951 484.174C170.05 492.878 177.629 509.55 180.44 518C181.717 521.839 185.033 527.684 182.83 531.661C176.399 543.276 152.967 541.16 142.003 546.545C125.251 554.773 136.13 587.953 143.635 600.936C153.026 617.184 172.763 607.907 186 604.053C190.743 602.671 199.028 597.759 203.283 602.531C205.771 605.323 204.641 609.647 205.506 613C207.712 621.546 209.565 631.026 213.634 639.003C224.162 659.642 254.358 647.694 270.913 640.317C290.103 631.764 264.322 599.394 268.033 586.129C270.714 576.544 295.164 575.795 303 573M325 676.72C292.001 686.722 309.515 735.447 342 724.812C373.063 714.643 356.167 667.272 325 676.72M343.001 731.53C311.102 738.567 326.17 786.739 356.997 780.449C390.265 773.661 375.229 724.421 343.001 731.53z"/>
<path style="fill:#edfcfc; stroke:none;" d="M0 755L0 978L223 978C201.989 970.089 177.642 969.829 156 961.568C98.0263 939.438 50.0785 893.714 23.2684 838C15.1879 821.208 9.12144 803.214 5.21682 785C3.17183 775.461 3.39451 764.016 0 755M1409 755C1408.88 776.528 1402.13 798.995 1394.68 819C1364.16 900.998 1278.31 976.474 1187 977C1193.47 979.418 1202.14 978 1209 978L1255 978L1410 978L1410 823L1410 777C1410 770.141 1411.42 761.469 1409 755z"/>
</svg>
